HIERARCHY
ROOT Hips
{
     OFFSET 1.88212 96.90440 -13.34250
     CHANNELS 6 Xposition Yposition Zposition Zrotation Xrotation Yrotation
     JOINT Spine
     {
          OFFSET 0.00000 11.89050 0.00000
          CHANNELS 3 Zrotation Xrotation Yrotation
          JOINT Spine1
          {
               OFFSET -0.00000 25.65740 0.12766
               CHANNELS 3 Zrotation Xrotation Yrotation
               JOINT HEad
               {
                    OFFSET 0.00000 8.73416 0.01134
                    CHANNELS 3 Zrotation Xrotation Yrotation
                    End Site
                    {
                         OFFSET -0.29000 12.77420 2.51395
                    }
               }
               JOINT LeftShoulder1
               {
                    OFFSET 8.99000 -0.36225 -0.22000
                    CHANNELS 3 Zrotation Xrotation Yrotation
                    JOINT LeftArm
                    {
                         OFFSET 10.28270 -0.00338 0.32212
                         CHANNELS 3 Zrotation Xrotation Yrotation
                         JOINT LeftForeArm
                         {
                              OFFSET 32.76690 0.09914 -1.42434
                              CHANNELS 3 Zrotation Xrotation Yrotation
                              JOINT LeftHand
                              {
                                   OFFSET 27.56430 0.08536 1.02216
                                   CHANNELS 3 Zrotation Xrotation Yrotation
                                   End Site
                                   {
                                        OFFSET 16.74430 -0.60000 1.50291
                                   }
                              }
                         }
                    }
               }
               JOINT RightShoulder
               {
                    OFFSET -8.99000 -0.36225 -0.22000
                    CHANNELS 3 Zrotation Xrotation Yrotation
                    JOINT RightArm
                    {
                         OFFSET -10.28270 -0.00338 0.32212
                         CHANNELS 3 Zrotation Xrotation Yrotation
                         JOINT RightForeArm
                         {
                              OFFSET -32.89710 0.09914 -1.42434
                              CHANNELS 3 Zrotation Xrotation Yrotation
                              JOINT RightHand
                              {
                                   OFFSET -27.49210 0.08536 1.02216
                                   CHANNELS 3 Zrotation Xrotation Yrotation
                                   End Site
                                   {
                                        OFFSET -16.63120 -0.60000 1.50291
                                   }
                              }
                         }
                    }
               }
          }
     }
     JOINT LeftUpLeg
     {
          OFFSET 8.94580 -8.66707 0.10165
          CHANNELS 3 Zrotation Xrotation Yrotation
          JOINT LeftLeg
          {
               OFFSET 0.00000 -44.42270 1.37270
               CHANNELS 3 Zrotation Xrotation Yrotation
               JOINT LeftFoot
               {
                    OFFSET -0.25355 -42.09240 -1.46059
                    CHANNELS 3 Zrotation Xrotation Yrotation
                    JOINT LeftToes
                    {
                         OFFSET -0.04000 -4.41509 8.49910
                         CHANNELS 3 Zrotation Xrotation Yrotation
                         End Site
                         {
                              OFFSET 0.08000 -0.04745 9.77979
                         }
                    }
               }
          }
     }
     JOINT RightUpLeg
     {
          OFFSET -8.94580 -8.66707 0.10165
          CHANNELS 3 Zrotation Xrotation Yrotation
          JOINT RightLeg
          {
               OFFSET 0.00000 -44.42270 1.37270
               CHANNELS 3 Zrotation Xrotation Yrotation
               JOINT RightFoot
               {
                    OFFSET 0.25355 -42.09240 -1.46059
                    CHANNELS 3 Zrotation Xrotation Yrotation
                    JOINT RightToes
                    {
                         OFFSET 0.04000 -4.41509 8.49910
                         CHANNELS 3 Zrotation Xrotation Yrotation
                         End Site
                         {
                              OFFSET -0.08000 -0.13745 9.77979
                         }
                    }
               }
          }
     }
}
MOTION
Frames: 8
Frame Time: 0.01667
26.40852 93.39937 -18.83381 6.03805 11.28825 156.34650 -7.27648 27.10549 -0.04411 -0.00526 0.00718 -0.01670 -18.56283 24.46360 19.78747 -0.95895 8.98260 -1.89263 -144.59435 -64.89783 -120.48134 -23.19417 61.70182 -92.50346 16.07057 8.86516 -6.18778 16.69172 9.20160 -2.65872 81.16566 0.31735 73.93771 -2.93925 27.27317 100.61454 16.63920 11.70073 9.56222 11.50626 -0.81610 -22.79718 -26.61604 -1.63597 64.64436 -29.83446 0.01104 0.00630 44.08363 -18.21267 -54.79457 -36.39319 4.51469 5.90389 51.58711 21.14224 -34.69077 -27.36625 0.01655 -0.00730 6.71518 -28.57055 5.43240 
25.82717 93.57441 -19.13230 6.52812 10.99724 156.00539 -6.68267 26.93765 1.06553 -0.00465 0.00708 -0.01515 -17.51636 23.90132 18.32086 -0.90132 9.15437 -2.61683 -143.63252 -64.19359 -119.78291 -22.31999 61.64833 -93.13056 16.20918 8.88378 -6.01583 16.68261 9.14234 -3.51054 81.76306 0.03879 74.30083 -3.40674 27.30790 101.47929 16.69319 11.54437 9.31138 11.59356 -0.55559 -19.42621 -26.08511 -0.28743 62.45324 -31.63278 0.00963 0.00744 45.51785 -18.39042 -55.58177 -36.31129 2.31641 8.45232 53.34608 21.04869 -36.93589 -27.45088 0.01517 -0.00246 6.42065 -28.48670 5.31084 
25.30019 93.78270 -19.34395 6.98257 10.68150 155.70769 -6.14787 26.76539 1.99225 -0.00400 0.00701 -0.01353 -16.53698 23.33424 17.02037 -0.83174 9.27616 -3.10312 -142.79982 -63.43306 -119.18998 -21.44306 61.62822 -93.80709 16.29483 9.00406 -5.84649 16.67999 9.10911 -4.09511 82.32761 -0.28221 74.71164 -3.88150 27.31936 102.30949 16.76912 11.56516 9.08609 11.70203 -0.41297 -16.30123 -25.64009 0.70014 60.39081 -30.10262 -0.00517 -0.00269 43.91143 -18.42459 -56.31129 -36.00594 0.48605 10.83060 54.45763 20.74272 -38.82850 -27.37695 0.01521 0.00031 6.32250 -28.29012 5.48661 
24.83001 94.01810 -19.47836 7.39320 10.35120 155.47176 -5.66236 26.59236 2.73811 -0.00335 0.00700 -0.01187 -15.62751 22.77946 15.87249 -0.75569 9.35126 -3.38439 -142.07973 -62.62221 -118.67256 -20.56476 61.63720 -94.51973 16.42110 9.00256 -5.60412 16.67559 9.09470 -4.44234 82.86502 -0.63964 75.16767 -4.37014 27.30840 103.09677 16.79502 11.46038 8.86769 11.81403 -0.36957 -13.44913 -25.05270 1.74551 58.44948 -28.71268 -0.00450 -0.00281 42.25803 -18.35826 -56.96294 -35.53026 -0.97151 13.04251 55.04491 20.33244 -40.36702 -27.10054 0.01492 0.00201 6.28130 -27.97382 5.84845 
24.42364 94.27259 -19.54907 7.75539 10.01844 155.31029 -5.21803 26.42284 3.31030 -0.00276 0.00700 -0.01022 -14.78983 22.25260 14.86407 -0.68278 9.38361 -3.49059 -141.44908 -61.77153 -118.19834 -19.69163 61.67513 -95.25390 16.52810 9.04775 -5.35939 16.66446 9.09166 -4.58888 83.37650 -1.02017 75.65959 -4.87885 27.27977 103.83484 16.83013 11.45109 8.67518 11.91175 -0.40959 -10.89022 -24.36002 2.76666 56.62214 -27.38490 -0.00286 -0.00260 40.57517 -18.18855 -57.52705 -34.93129 -2.06781 15.09078 55.22273 19.86892 -41.57053 -26.71281 0.01498 0.00333 6.29930 -27.53334 6.32296 
24.08841 94.53556 -19.56913 8.06728 9.69568 155.23071 -4.80955 26.25999 3.72035 -0.00229 0.00697 -0.00870 -14.02476 21.76811 13.98271 -0.62346 9.37680 -3.45257 -140.89339 -60.90018 -117.74638 -18.83789 61.74101 -95.99083 16.66799 9.01622 -5.07417 16.63847 9.09298 -4.56858 83.86440 -1.41085 76.17146 -5.41018 27.23692 104.51915 16.83581 11.35977 8.50505 11.98412 -0.51600 -8.63711 -23.59300 3.71453 54.90590 -26.07172 -0.00146 -0.00253 38.86479 -17.92474 -58.00178 -34.24942 -2.82432 16.97749 55.09113 19.36850 -42.46706 -26.24973 0.01510 0.00437 6.32809 -26.97391 6.83655 
23.82914 94.79526 -19.54870 8.32842 9.39431 155.23541 -4.43539 26.10519 3.98288 -0.00194 0.00690 -0.00739 -13.33228 21.33871 13.21739 -0.58653 9.33642 -3.30484 -140.40703 -60.03253 -117.30762 -18.00961 61.83055 -96.72156 16.79244 9.01999 -4.79338 16.58372 9.09512 -4.40999 84.33511 -1.79980 76.68435 -5.96475 27.18313 105.14794 16.85321 11.31557 8.36197 12.02657 -0.67162 -6.69378 -22.77720 4.56648 53.30035 -24.74849 -0.00022 -0.00252 37.12687 -17.56750 -58.38800 -33.51980 -3.26776 18.70442 54.73126 18.82603 -43.08848 -25.77244 0.01544 0.00513 6.36590 -26.35119 7.33747 
23.64741 95.04026 -19.49513 8.53872 9.12400 155.32236 -4.09792 25.95868 4.11448 -0.00174 0.00683 -0.00635 -12.71122 20.97425 12.55918 -0.57770 9.27214 -3.08283 -139.98431 -59.19054 -116.87930 -17.19538 61.92966 -97.45161 16.92053 9.00085 -4.50027 16.48495 9.09920 -4.14206 84.79637 -2.17266 77.18320 -6.53913 27.11865 105.72069 16.85232 11.21991 8.24671 12.03879 -0.86048 -5.05602 -21.93499 5.31536 51.80615 -23.40359 0.00091 -0.00256 35.35705 -17.12630 -58.69033 -32.77342 -3.42695 20.27310 54.20328 18.22359 -43.47070 -25.31118 0.01589 0.00548 6.40141 -25.73922 7.79414 
